#!OML:ASF F:\VICON\USERDATA\INSTALL\rory3\rory3.ASF
:FULLY-SPECIFIED
:DEGREES
222
root 1.78589 16.0957 -20.6479 -121.331 -50.703 161.867
lowerback 22.7141 -8.39802 17.8023
upperback 6.24559 -7.59452 10.7754
thorax -5.97707 -4.30411 4.38438
lowerneck -15.4942 -9.83539 -10.4448
upperneck 11.7986 -14.683 19.9289
head 8.62923 -5.89163 6.47436
rclavicle 4.77083e-015 -1.39149e-015
rhumerus 60.6272 -56.8027 -94.6089
rradius 10.2085
rwrist 101.021
rhand -13.45 17.8102
rfingers 7.12502
rthumb 12.6594 -11.7861
lclavicle 4.77083e-015 -1.39149e-015
lhumerus 40.5044 -15.2436 67.9996
lradius 18.5274
lwrist -40.1853
lhand -13.4068 19.343
lfingers 7.12502
lthumb 12.701 48.9367
rfemur -72.8257 8.9482 364.131
rtibia 50.5121
rfoot 142.709 153.054
rtoes 35.4406
lfemur -44.4012 25.4773 -10.2935
ltibia 58.8045
lfoot 28.0973 38.5748
ltoes 29.5775
223
root 1.76381 16.0612 -20.5447 -123.875 -50.7145 163.896
lowerback 21.3385 -8.23307 18.5714
upperback 6.16512 -7.56362 10.3863
thorax -5.50161 -4.27162 3.34112
lowerneck -14.7209 -10.1529 -10.2682
upperneck 11.9376 -15.3176 20.0641
head 8.63933 -6.20951 6.41151
rclavicle 1.27222e-013 -6.52014e-014
rhumerus 72.7984 -62.6787 -109.66
rradius 10.9163
rwrist 107.849
rhand -13.4659 17.4658
rfingers 7.12502
rthumb 12.6441 -12.1315
lclavicle 1.27222e-013 -6.52014e-014
lhumerus 40.008 -14.4231 68.3341
lradius 18.5506
lwrist -43.6876
lhand -12.8598 19.1509
lfingers 7.12502
lthumb 13.2283 48.7112
rfemur -72.1902 9.01723 365.809
rtibia 50.6771
rfoot 143.774 153.994
rtoes 34.1094
lfemur -47.8421 26.8303 -10.8271
ltibia 62.5055
lfoot 27.3389 40.2152
ltoes 32.7261
224
root 1.72948 16.0281 -20.4639 -126.144 -50.5434 165.721
lowerback 19.6924 -8.05633 19.1291
upperback 6.12856 -7.64624 9.94247
thorax -4.82901 -4.27079 2.343
lowerneck -13.742 -10.3453 -9.88532
upperneck 12.0629 -15.8033 20.0507
head 8.54812 -6.47596 6.29843
rclavicle 2.70347e-014 -5.40694e-014
rhumerus 85.3191 -66.3846 -124.233
rradius 11.9501
rwrist 112.261
rhand -13.7206 17.6478
rfingers 7.12502
rthumb 12.3985 -11.9645
lclavicle 2.70347e-014 -5.40694e-014
lhumerus 40.7307 -16.3489 64.91
lradius 18.4292
lwrist -42.6345
lhand -12.0875 19.7893
lfingers 7.12502
lthumb 13.9727 49.2997
rfemur -71.5219 9.05022 367.302
rtibia 50.7485
rfoot 145.029 154.712
rtoes 32.3988
lfemur -51.5402 28.1472 -11.7302
ltibia 66.2242
lfoot 32.8094 37.2535
ltoes 27.1106
225
root 1.71262 15.9914 -20.4357 -129.95 -49.5252 168.881
lowerback 19.1877 -7.61101 18.7407
upperback 6.28898 -7.34178 9.45667
thorax -4.39425 -4.10472 1.8101
lowerneck -13.1323 -10.4097 -9.45125
upperneck 12.6845 -16.241 20.0942
head 8.68058 -6.67691 6.20254
rclavicle -2.22639e-014 4.85035e-014
rhumerus 99.8527 -68.3431 -140.455
rradius 12.3605
rwrist 115.19
rhand -15.3337 17.3773
rfingers 7.12502
rthumb 10.8429 -12.3228
lclavicle -2.22639e-014 4.85035e-014
lhumerus 41.1096 -16.735 62.6707
lradius 18.0092
lwrist -42.918
lhand -11.2888 20.3909
lfingers 7.12502
lthumb 14.7423 49.8467
rfemur -70.5444 10.9688 368.494
rtibia 50.7193
rfoot 145.55 155.15
rtoes 31.5354
lfemur -53.7552 30.4985 -11.7227
ltibia 69.714
lfoot 35.8342 35.0036
ltoes 23.5811
226
root 1.68945 15.9586 -20.3849 -133.675 -48.6856 172.247
lowerback 18.6749 -7.32705 19.039
upperback 6.33808 -7.08836 9.01119
thorax -4.1312 -3.96913 1.02002
lowerneck -12.6077 -10.436 -9.66354
upperneck 13.4706 -16.7585 20.8988
head 9.03914 -6.8906 6.46798
rclavicle -4.13472e-014 4.49253e-014
rhumerus 113.134 -69.0221 -155.042
rradius 12.8301
rwrist 116.762
rhand -15.9072 17.7387
rfingers 7.12502
rthumb 10.2896 -11.9896
lclavicle -4.13472e-014 4.49253e-014
lhumerus 41.3588 -16.2494 61.2469
lradius 17.3065
lwrist -43.3768
lhand -9.93782 21.1418
lfingers 7.12502
lthumb 16.0435 50.4976
rfemur -69.6538 13.067 369.779
rtibia 50.575
rfoot 145.465 155.73
rtoes 31.9564
lfemur -56.3745 32.541 -11.4529
ltibia 73.1795
lfoot 37.7443 33.9246
ltoes 22.1989
227
root 1.64853 15.933 -20.3143 -137.47 -48.1809 175.723
lowerback 18.2399 -7.3414 20.2358
upperback 6.2959 -7.0223 8.5576
thorax -4.09434 -3.93115 -0.144097
lowerneck -11.7405 -10.3355 -9.5686
upperneck 13.9222 -17.0462 21.4144
head 9.12669 -7.04799 6.63248
rclavicle 6.36111e-014 -2.22639e-014
rhumerus 123.002 -69.4564 -166.021
rradius 13.2997
rwrist 116.27
rhand -14.682 17.9888
rfingers 7.12502
rthumb 11.4714 -11.6773
lclavicle 6.36111e-014 -2.22639e-014
lhumerus 41.7347 -16.5782 58.8178
lradius 16.5926
lwrist -41.2668
lhand -8.73937 22.3791
lfingers 7.12502
lthumb 17.1973 51.6381
rfemur -68.3562 13.996 372.33
rtibia 50.3673
rfoot 145.89 157.187
rtoes 32.4459
lfemur -59.2916 34.1909 -10.9263
ltibia 76.627
lfoot 41.7695 29.5686
ltoes 14.1776
228
root 1.61693 15.9125 -20.2898 -139.797 -45.3707 177.429
lowerback 18.0663 -6.88399 18.6263
upperback 6.24834 -6.67562 7.60992
thorax -4.03645 -3.72446 -0.493347
lowerneck -10.65 -10.1422 -9.8928
upperneck 14.5393 -17.3798 22.4286
head 9.33411 -7.24131 7.05948
rclavicle 6.12257e-014 -1.31198e-014
rhumerus 132.81 -69.3577 -176.837
rradius 13.6059
rwrist 116.413
rhand -13.8014 18.3386
rfingers 7.12502
rthumb 12.3206 -11.2784
lclavicle 6.12257e-014 -1.31198e-014
lhumerus 41.7826 -16.1273 57.3829
lradius 15.3097
lwrist -39.623
lhand -8.90791 23.887
lfingers 7.12502
lthumb 17.0351 53.1601
rfemur -67.634 16.0032 372.175
rtibia 50.3107
rfoot 146.557 158.147
rtoes 32.5063
lfemur -63.2785 37.1204 -14.4421
ltibia 79.7907
lfoot 47.6069 -17.6787
ltoes -54.1618
229
root 1.58879 15.8875 -20.2538 -141.761 -42.9292 178.781
lowerback 17.7821 -6.54413 17.3542
upperback 6.15765 -6.43684 6.71999
thorax -3.99365 -3.57118 -0.90459
lowerneck -10.1736 -9.99265 -10.1496
upperneck 15.653 -17.9489 23.3601
head 9.87079 -7.49242 7.40557
rclavicle -8.74653e-015 2.74323e-014
rhumerus 145.585 -66.6979 -190.708
rradius 13.8355
rwrist 120.545
rhand -16.0315 19.3129
rfingers 7.12502
rthumb 10.1698 -10.4213
lclavicle -8.74653e-015 2.74323e-014
lhumerus 41.69 -14.971 56.7263
lradius 14.3755
lwrist -39.8564
lhand -8.52639 25.7904
lfingers 7.12502
lthumb 17.4023 55.0314
rfemur -66.9802 17.8557 371.994
rtibia 50.2444
rfoot 147.393 158.685
rtoes 31.8338
lfemur -65.8498 38.5368 -16.0086
ltibia 82.5257
lfoot 36.1383 -36.1411
ltoes -60.4353
230
root 1.59223 15.8492 -20.2605 -142.549 -39.9361 178.726
lowerback 17.6369 -6.17181 14.6052
upperback 5.63542 -6.22069 5.67059
thorax -4.42153 -3.43096 -0.64182
lowerneck -9.5016 -9.77735 -10.6547
upperneck 17.1401 -18.5979 24.175
head 10.5487 -7.82086 7.77928
rclavicle -1.51076e-014 -3.8763e-014
rhumerus 155.712 -63.9411 -201.705
rradius 13.9341
rwrist 125.184
rhand -16.4806 20.3578
rfingers 7.12502
rthumb 9.73653 -9.39711
lclavicle -1.51076e-014 -3.8763e-014
lhumerus 41.0576 -13.6002 56.5099
lradius 13.6979
lwrist -41.466
lhand -6.11594 27.6056
lfingers 7.12502
lthumb 19.7209 56.6252
rfemur -66.9489 20.4038 369.976
rtibia 50.3395
rfoot 147.998 158.402
rtoes 31.5161
lfemur -66.5565 38.9307 -16.7236
ltibia 84.6669
lfoot 48.714 15.767
ltoes -12.5105
231
root 1.50654 15.8515 -20.2775 -145.088 -38.6905 180.821
lowerback 16.9318 -6.36081 15.3965
upperback 5.44606 -6.41753 5.04477
thorax -4.42772 -3.5088 -1.73793
lowerneck -8.81067 -9.51909 -11.0869
upperneck 18.3732 -19.0445 24.6491
head 11.0604 -8.09493 8.05267
rclavicle 6.48038e-014 -7.35503e-014
rhumerus 162.835 -60.9598 -209.235
rradius 13.806
rwrist 129.421
rhand -16.4509 20.8971
rfingers 7.12502
rthumb 9.76511 -8.8565
lclavicle 6.48038e-014 -7.35503e-014
lhumerus 40.0507 -11.0384 57.3258
lradius 13.9854
lwrist -44.5236
lhand -3.39319 29.2047
lfingers 7.12502
lthumb 22.3366 57.9336
rfemur -65.301 21.7434 371.663
rtibia 50.1785
rfoot 148.891 159.046
rtoes 30.7117
lfemur -69.1791 40.4298 -17.1518
ltibia 87.0637
lfoot 51.1556 8.1874
ltoes -26.2348
232
root 1.46172 15.8453 -20.2615 -146.563 -36.3123 181.845
lowerback 16.2139 -6.05908 14.5653
upperback 5.40968 -6.25727 4.261
thorax -4.09956 -3.38778 -2.25378
lowerneck -8.66803 -9.50359 -11.2395
upperneck 19.491 -19.6918 24.7757
head 11.6305 -8.41153 8.07248
rclavicle -4.45775e-014 7.81224e-014
rhumerus 168.634 -57.2454 -214.926
rradius 13.4999
rwrist 134.486
rhand -16.646 21.2307
rfingers 7.12502
rthumb 9.57691 -8.53164
lclavicle -4.45775e-014 7.81224e-014
lhumerus 40.2401 -10.3411 56.3829
lradius 13.8197
lwrist -45.3962
lhand -2.40713 31.0057
lfingers 7.12502
lthumb 23.2829 59.6179
rfemur -64.6675 23.4745 371.658
rtibia 50.0807
rfoot 150.041 159.338
rtoes 29.6644
lfemur -71.992 41.412 -18.6797
ltibia 89.3584
lfoot 52.3016 4.23148
ltoes -31.6869
233
root 1.42051 15.85 -20.2666 -147.702 -33.7843 182.537
lowerback 15.3281 -5.78437 13.3238
upperback 5.36769 -6.20092 3.5491
thorax -3.65802 -3.31401 -2.45252
lowerneck -8.99347 -9.43316 -11.6142
upperneck 21.2106 -20.3636 24.6127
head 12.5443 -8.72358 8.0232
rclavicle 9.13416e-014 -5.64548e-014
rhumerus 172.693 -54.3243 -218.819
rradius 13.2386
rwrist 138.905
rhand -17.0358 21.3448
rfingers 7.12502
rthumb 9.20075 -8.43448
lclavicle 9.13416e-014 -5.64548e-014
lhumerus 40.2292 -10.0609 54.9722
lradius 14.1107
lwrist -45.9838
lhand -1.05298 32.6094
lfingers 7.12502
lthumb 24.5814 61.0512
rfemur -64.199 25.5948 371.128
rtibia 49.8706
rfoot 150.829 159.238
rtoes 29.8308
lfemur -74.4304 42.2566 -20.0244
ltibia 91.5276
lfoot 52.3904 8.17546
ltoes -24.9814
234
root 1.38014 15.8589 -20.2771 -148.633 -31.3176 182.931
lowerback 14.519 -5.5795 12.0239
upperback 5.14735 -6.16458 2.72823
thorax -3.45698 -3.259 -2.69648
lowerneck -9.23724 -9.19835 -11.9029
upperneck 23.1238 -21.1711 24.6897
head 13.6378 -9.11871 8.0528
rclavicle -3.06128e-014 1.39149e-014
rhumerus 176.581 -52.4136 -222.675
rradius 12.9557
rwrist 141.212
rhand -17.1247 21.1591
rfingers 7.12502
rthumb 9.11501 -8.62388
lclavicle -3.06128e-014 1.39149e-014
lhumerus 39.7902 -10.5058 53.1155
lradius 15.3844
lwrist -46.1468
lhand 0.822642 33.8639
lfingers 7.12502
lthumb 26.3781 62.049
rfemur -63.8392 27.5883 370.455
rtibia 49.7451
rfoot 151.339 159.366
rtoes 31.5978
lfemur -76.5288 42.8351 -21.1505
ltibia 93.5799
lfoot 49.2535 23.6828
ltoes 5.10868
235
root 1.33271 15.873 -20.2714 -149.899 -28.6714 183.17
lowerback 14.2641 -5.48403 10.737
upperback 5.00587 -6.20848 1.82733
thorax -3.47712 -3.26067 -2.95693
lowerneck -8.84601 -9.08915 -13.1454
upperneck 22.9814 -21.7835 26.2984
head 14.1264 -9.55235 8.869
rclavicle -3.73715e-014 -8.34896e-015
rhumerus 179.831 -51.0967 -225.893
rradius 12.6115
rwrist 141.871
rhand -16.873 21.2783
rfingers 7.12502
rthumb 9.3579 -8.49394
lclavicle -3.73715e-014 -8.34896e-015
lhumerus 39.9408 -12.0623 50.1274
lradius 15.6273
lwrist -44.5678
lhand 1.12162 34.8918
lfingers 7.12502
lthumb 26.6643 63.0337
rfemur -62.7857 29.066 370.398
rtibia 49.616
rfoot 152.752 159.695
rtoes 32.017
lfemur -78.0461 43.414 -22.1011
ltibia 95.6075
lfoot 44.2392 34.1142
ltoes 24.0069
236
root 1.27429 15.9125 -20.2373 -151.017 -26.0602 183.127
lowerback 13.8606 -5.28624 9.70837
upperback 5.22118 -6.17505 0.853508
thorax -3.04676 -3.21774 -3.4771
lowerneck -9.32459 -9.1773 -12.7961
upperneck 23.9169 -22.4033 25.8365
head 14.6897 -9.80199 8.49447
rclavicle -1.59028e-014 -8.34896e-014
rhumerus 183.044 -53.9573 -228.826
rradius 11.8475
rwrist 136.707
rhand -15.7255 21.0458
rfingers 7.12502
rthumb 10.4649 -8.67368
lclavicle -1.59028e-014 -8.34896e-014
lhumerus 40.9502 -13.4292 47.2338
lradius 16.1207
lwrist -43.2061
lhand 1.35927 35.4434
lfingers 7.12502
lthumb 26.8917 63.5505
rfemur -61.4811 29.7422 370.586
rtibia 49.5143
rfoot 154.572 160.404
rtoes 30.9632
lfemur -79.8769 43.6419 -23.7092
ltibia 97.419
lfoot 45.2078 32.7715
ltoes 21.761
